<svg xmlns="http://www.w3.org/2000/svg" xmlns:xlink="http://www.w3.org/1999/xlink" width="339.217" height="171.312" viewBox="0 0 339.217 171.312">
  <defs>
    <clipPath id="clip-path">
      <rect id="Rectangle_98" data-name="Rectangle 98" width="339.217" height="83.312" fill="none"/>
    </clipPath>
  </defs>
  <g id="Group_77" data-name="Group 77" transform="translate(10.395 120.161)">
    <rect id="Rectangle-path" width="55" height="51" transform="translate(-0.178 0.151)" fill="#00b67a"/>
    <path id="Shape" d="M33.144,43.256l8.145-2.064,3.4,10.488ZM51.888,29.7H37.551L33.144,16.2,28.737,29.7H14.4L26,38.068,21.6,51.568,33.2,43.2l7.14-5.132L51.888,29.7Z" transform="translate(-6.085 -9.87)" fill="#fff"/>
    <g id="Group_70" data-name="Group 70" transform="translate(72.419 0)">
      <g id="Group_69" data-name="Group 69" transform="translate(0 0)">
        <rect id="Rectangle-path-2" data-name="Rectangle-path" width="51" height="51" transform="translate(0.403 0.151)" fill="#00b67a"/>
        <path id="Shape-2" data-name="Shape" d="M136.568,42.425l7.895-2,3.3,10.166Zm18.168-13.14h-13.9L136.568,16.2,132.3,29.286H118.4L129.647,37.4l-4.272,13.086,11.247-8.111,6.921-4.975,11.193-8.111Z" transform="translate(-110.785 -8.504)" fill="#fff"/>
      </g>
    </g>
    <g id="Group_71" data-name="Group 71" transform="translate(142.229 0)">
      <rect id="Rectangle-path-3" data-name="Rectangle-path" width="51" height="51" transform="translate(-0.406 0.151)" fill="#00b67a"/>
      <path id="Shape-3" data-name="Shape" d="M240.568,42.425l7.894-2,3.3,10.166Zm18.168-13.14h-13.9L240.568,16.2,236.3,29.286H222.4L233.647,37.4l-4.272,13.086,11.247-8.111,6.921-4.975,11.193-8.111Z" transform="translate(-214.877 -8.504)" fill="#fff"/>
    </g>
    <g id="Group_72" data-name="Group 72" transform="translate(211.386 0)">
      <rect id="Rectangle-path-4" data-name="Rectangle-path" width="50" height="51" transform="translate(0.437 0.151)" fill="#00b67a"/>
      <path id="Shape-4" data-name="Shape" d="M344.568,42.425l7.894-2,3.3,10.166Zm18.168-13.14h-13.9L344.568,16.2,340.3,29.286H326.4L337.647,37.4l-4.272,13.086,11.247-8.111,6.921-4.975,11.193-8.111Z" transform="translate(-318.315 -8.504)" fill="#fff"/>
    </g>
    <g id="Group_73" data-name="Group 73" transform="translate(280.543 0)">
      <rect id="Rectangle-path-5" data-name="Rectangle-path" width="48" height="51" transform="translate(0.279 0.151)" fill="#00b67a"/>
      <path id="Shape-5" data-name="Shape" d="M448.568,42.425l7.895-2,3.3,10.166Zm18.168-13.14h-13.9L448.568,16.2,444.3,29.286H430.4L441.647,37.4l-4.272,13.086,11.247-8.111,6.921-4.975,11.193-8.111Z" transform="translate(-424.001 -8.504)" fill="#fff"/>
    </g>
  </g>
  <g id="Group_78" data-name="Group 78">
    <g id="Group_75" data-name="Group 75" clip-path="url(#clip-path)">
      <path id="Path_244" data-name="Path 244" d="M297.741,98.58H332.1V105H318.6v36.02h-7.43V105H297.741Zm32.87,11.709h6.36v5.944h.119a6.845,6.845,0,0,1,1.159-2.437,11.3,11.3,0,0,1,2.081-2.169,10.5,10.5,0,0,1,2.7-1.575,8.106,8.106,0,0,1,3.031-.594,14.885,14.885,0,0,1,1.635.059q.446.06.921.119v6.538q-.713-.118-1.456-.208a12.253,12.253,0,0,0-1.456-.089,7.8,7.8,0,0,0-3.239.683,7.438,7.438,0,0,0-2.645,2.021,9.894,9.894,0,0,0-1.784,3.3,14.26,14.26,0,0,0-.654,4.517V141.02h-6.776Zm49.105,30.73h-6.658v-4.28h-.118a9.308,9.308,0,0,1-3.715,3.715,10.091,10.091,0,0,1-5.023,1.4q-6.063,0-8.767-3t-2.7-9.065v-19.5h6.776v18.842q0,4.043,1.545,5.706a5.626,5.626,0,0,0,4.339,1.664,8.545,8.545,0,0,0,3.566-.654,6.293,6.293,0,0,0,2.318-1.753,6.732,6.732,0,0,0,1.278-2.645,13.711,13.711,0,0,0,.387-3.329V110.289h6.776Zm11.531-9.867a5.1,5.1,0,0,0,2.259,4.161,8.883,8.883,0,0,0,4.7,1.189,18.079,18.079,0,0,0,2.17-.149,9.4,9.4,0,0,0,2.288-.565,4.3,4.3,0,0,0,1.753-1.218,2.931,2.931,0,0,0,.624-2.11,3,3,0,0,0-.951-2.14,6.606,6.606,0,0,0-2.288-1.338,22.313,22.313,0,0,0-3.18-.862q-1.783-.357-3.626-.773a33.849,33.849,0,0,1-3.656-1.011,11.754,11.754,0,0,1-3.15-1.605,7.406,7.406,0,0,1-2.229-2.585,8.254,8.254,0,0,1-.832-3.893,6.989,6.989,0,0,1,1.219-4.191,9.339,9.339,0,0,1,3.091-2.734,13.485,13.485,0,0,1,4.16-1.457,24.5,24.5,0,0,1,4.369-.416,20.046,20.046,0,0,1,4.547.505,12.38,12.38,0,0,1,3.923,1.635,9.609,9.609,0,0,1,2.913,2.942,10.194,10.194,0,0,1,1.456,4.369h-7.073a4.223,4.223,0,0,0-2.229-3.269,9.257,9.257,0,0,0-4.013-.832,14.46,14.46,0,0,0-1.694.119,7.883,7.883,0,0,0-1.842.446,3.872,3.872,0,0,0-1.457.951,2.272,2.272,0,0,0-.594,1.635,2.583,2.583,0,0,0,.862,2.021,6.8,6.8,0,0,0,2.259,1.278,22.1,22.1,0,0,0,3.18.862q1.784.357,3.686.773,1.841.416,3.626,1.01a11.717,11.717,0,0,1,3.18,1.6,7.819,7.819,0,0,1,2.259,2.556,7.725,7.725,0,0,1,.862,3.8,8.263,8.263,0,0,1-1.248,4.636,9.857,9.857,0,0,1-3.239,3.091,14.73,14.73,0,0,1-4.428,1.724,22.415,22.415,0,0,1-4.814.535,20.956,20.956,0,0,1-5.379-.654,12.524,12.524,0,0,1-4.28-1.991,9.6,9.6,0,0,1-2.853-3.329,10.573,10.573,0,0,1-1.1-4.726ZM413.6,110.289h5.112v-9.213h6.776v9.213h6.122v5.052h-6.122v16.405a16.367,16.367,0,0,0,.089,1.843,3.169,3.169,0,0,0,.416,1.308,1.98,1.98,0,0,0,.981.8,4.819,4.819,0,0,0,1.783.268q.714,0,1.427-.03a7.079,7.079,0,0,0,1.426-.208v5.231q-1.13.118-2.2.238a20.04,20.04,0,0,1-2.2.119,15.019,15.019,0,0,1-4.309-.505,5.743,5.743,0,0,1-2.556-1.486,5.118,5.118,0,0,1-1.249-2.467,18.483,18.483,0,0,1-.386-3.388V115.342H413.6Zm22.765,0h6.419v4.161h.119a8.375,8.375,0,0,1,3.982-3.834,13.22,13.22,0,0,1,5.528-1.159,14.686,14.686,0,0,1,6.331,1.278,12.49,12.49,0,0,1,4.487,3.507,15.237,15.237,0,0,1,2.675,5.2,22.049,22.049,0,0,1,.891,6.361,22.5,22.5,0,0,1-.8,6,15.626,15.626,0,0,1-2.437,5.142,11.875,11.875,0,0,1-10.015,4.9,16.752,16.752,0,0,1-2.972-.267,12.867,12.867,0,0,1-2.853-.862,11.2,11.2,0,0,1-2.526-1.516,8.39,8.39,0,0,1-1.932-2.169h-.119v15.335h-6.776Zm23.657,15.395a15.28,15.28,0,0,0-.535-4.042,10.978,10.978,0,0,0-1.6-3.477,8.3,8.3,0,0,0-2.675-2.437,7.271,7.271,0,0,0-3.685-.921,7.472,7.472,0,0,0-6.449,2.972,13.113,13.113,0,0,0-2.169,7.905,15.724,15.724,0,0,0,.564,4.31,9.684,9.684,0,0,0,1.694,3.418,8.438,8.438,0,0,0,2.7,2.259,7.7,7.7,0,0,0,3.656.832,7.568,7.568,0,0,0,3.923-.951,8.29,8.29,0,0,0,2.645-2.467,10.012,10.012,0,0,0,1.486-3.448,17.506,17.506,0,0,0,.446-3.953m11.947-27.1h6.776V105h-6.776Zm0,11.709h6.776v30.73h-6.776ZM484.8,98.58h6.776v42.44H484.8Zm27.52,43.272a16.739,16.739,0,0,1-6.568-1.218,13.987,13.987,0,0,1-4.874-3.358,14.336,14.336,0,0,1-3.031-5.112,20.88,20.88,0,0,1,0-13.017,14.343,14.343,0,0,1,3.031-5.112,14,14,0,0,1,4.874-3.358,18.311,18.311,0,0,1,13.136,0,14.023,14.023,0,0,1,4.874,3.358,14.379,14.379,0,0,1,3.032,5.112,20.886,20.886,0,0,1,0,13.017,14.371,14.371,0,0,1-3.032,5.112,14.007,14.007,0,0,1-4.874,3.358,16.747,16.747,0,0,1-6.568,1.218m0-5.35a7.773,7.773,0,0,0,3.923-.951,8.258,8.258,0,0,0,2.734-2.5,10.89,10.89,0,0,0,1.575-3.477,15.6,15.6,0,0,0,0-7.876,10.522,10.522,0,0,0-1.575-3.477,8.4,8.4,0,0,0-2.734-2.467,8.567,8.567,0,0,0-7.846,0,8.4,8.4,0,0,0-2.734,2.467,10.508,10.508,0,0,0-1.575,3.477,15.612,15.612,0,0,0,0,7.876,10.875,10.875,0,0,0,1.575,3.477,8.251,8.251,0,0,0,2.734,2.5,7.769,7.769,0,0,0,3.923.951m17.475-26.213H534.9v-9.213h6.776v9.213H547.8v5.052h-6.122v16.405a16.365,16.365,0,0,0,.089,1.843,3.168,3.168,0,0,0,.416,1.308,1.981,1.981,0,0,0,.981.8,4.819,4.819,0,0,0,1.783.268q.714,0,1.427-.03a7.078,7.078,0,0,0,1.426-.208v5.231q-1.13.118-2.2.238a20.043,20.043,0,0,1-2.2.119,15.022,15.022,0,0,1-4.31-.505,5.744,5.744,0,0,1-2.556-1.486,5.118,5.118,0,0,1-1.248-2.467,18.478,18.478,0,0,1-.386-3.388V115.342h-5.112Z" transform="translate(-208.584 -69.061)" fill="#fff"/>
      <path id="Path_245" data-name="Path 245" d="M81.245,29.519l-31.035-.005L40.623,0,31.036,29.51,0,29.505,25.109,47.753,15.52,77.27,40.626,59.03l25.1,18.24L56.138,47.76Z" transform="translate(0 0)" fill="#54c383"/>
      <path id="Path_246" data-name="Path 246" d="M153.358,166.186l-2.173-6.69-15.512,11.27Z" transform="translate(-95.047 -111.736)" fill="#184625"/>
    </g>
  </g>
</svg>