<?xml version="1.0" standalone="no"?>
<!DOCTYPE svg PUBLIC "-//W3C//DTD SVG 20010904//EN"
 "http://www.w3.org/TR/2001/REC-SVG-20010904/DTD/svg10.dtd">
<svg version="1.0" xmlns="http://www.w3.org/2000/svg"
 width="200.000000pt" height="200.000000pt" viewBox="0 0 200.000000 200.000000"
 preserveAspectRatio="xMidYMid meet">

<g transform="translate(0.000000,200.000000) scale(0.100000,-0.100000)"
fill="#000000" stroke="none">
<path d="M648 1924 c-61 -32 -115 -187 -139 -399 -12 -103 -12 -106 9 -127 28
-28 189 -64 354 -79 98 -9 158 -9 255 0 166 15 327 51 355 79 21 21 21 24 9
127 -15 136 -53 285 -86 342 -15 25 -40 51 -59 60 -30 14 -38 14 -91 -2 -32
-9 -103 -36 -157 -60 l-99 -43 -77 35 c-83 37 -212 83 -234 83 -7 -1 -25 -7
-40 -16z m207 -177 c66 -30 124 -50 145 -50 21 0 79 20 145 50 151 69 150 69
164 36 18 -46 49 -178 57 -241 l6 -58 -53 -12 c-196 -43 -442 -43 -636 0 -46
10 -53 14 -53 36 0 38 39 219 57 263 18 47 12 48 168 -24z"/>
<path d="M300 1540 c-218 -71 -292 -178 -199 -285 216 -246 1506 -257 1782
-16 39 35 63 96 51 134 -20 68 -125 138 -256 173 -65 17 -68 17 -87 0 -58 -53
-32 -93 83 -130 83 -27 136 -57 136 -77 0 -31 -202 -95 -390 -124 -142 -22
-519 -31 -689 -16 -241 21 -460 73 -521 122 l-25 20 28 22 c15 12 67 36 115
53 66 23 90 36 102 57 13 24 13 28 -6 54 -26 34 -52 37 -124 13z"/>
<path d="M182 989 c-113 -77 -134 -104 -109 -142 8 -13 74 -59 145 -101 l131
-77 -50 -76 c-53 -82 -58 -101 -31 -131 16 -19 836 -402 861 -402 17 0 61 46
61 64 0 9 -73 89 -163 178 -122 121 -179 187 -225 258 -88 135 -98 144 -143
119 -30 -16 -39 -49 -23 -88 17 -41 82 -138 136 -204 l40 -47 -44 19 c-79 35
-352 162 -357 166 -2 3 17 36 42 75 71 106 70 110 -84 202 -66 39 -119 73
-119 77 0 3 21 19 46 35 25 16 52 35 60 43 19 19 18 68 -2 87 -28 29 -66 17
-172 -55z"/>
<path d="M516 1038 c-23 -33 -20 -48 24 -117 49 -76 80 -105 145 -139 42 -22
63 -27 130 -27 69 0 89 4 133 27 l52 27 52 -27 c44 -23 64 -27 133 -27 123 0
196 45 275 166 22 34 40 69 40 78 0 30 -30 61 -58 61 -36 0 -42 -5 -91 -77
-50 -75 -97 -103 -171 -103 -65 0 -85 11 -110 61 -39 76 -101 76 -140 0 -25
-50 -45 -61 -110 -61 -74 0 -121 28 -171 103 -24 34 -47 65 -53 69 -23 16 -65
8 -80 -14z"/>
<path d="M1646 1044 c-20 -19 -21 -68 -2 -87 8 -8 35 -27 60 -43 25 -16 46
-32 46 -35 0 -4 -53 -38 -119 -77 -155 -93 -156 -96 -81 -207 l50 -74 -173
-97 c-216 -122 -237 -137 -237 -173 0 -33 27 -61 58 -61 26 0 459 243 485 272
26 30 21 49 -32 131 l-50 76 131 77 c142 84 168 110 150 149 -14 31 -214 165
-246 165 -13 0 -32 -7 -40 -16z"/>
<path d="M1278 678 c-8 -7 -29 -38 -46 -68 -17 -30 -62 -93 -101 -139 -39 -46
-71 -90 -71 -98 0 -20 46 -63 67 -63 27 0 154 136 201 216 48 81 54 124 20
148 -27 19 -49 20 -70 4z"/>
</g>
</svg>
