<?xml version="1.0" encoding="UTF-8"?>
<svg version="1.1" xmlns="http://www.w3.org/2000/svg" width="482" height="512">
<path d="M0 0 C1.53904469 -0.00417592 3.07808631 -0.00965486 4.61712223 -0.01631981 C8.83452059 -0.03075916 13.05172326 -0.02653445 17.26913226 -0.019153 C21.82205384 -0.01441991 26.37493317 -0.0269324 30.92784119 -0.03717041 C39.84262533 -0.05436073 48.75733899 -0.05519797 57.67213541 -0.04995751 C64.91825199 -0.04591516 72.16434775 -0.04736013 79.41046333 -0.05270576 C80.95775431 -0.0538284 80.95775431 -0.0538284 82.53630369 -0.05497371 C84.63188084 -0.05650519 86.72745799 -0.05804354 88.82303513 -0.05958868 C108.47182542 -0.07331446 128.12057588 -0.06787538 147.76936526 -0.05640347 C165.74299298 -0.04647006 183.71651778 -0.05941348 201.69012963 -0.08333766 C220.14918964 -0.10772275 238.6082017 -0.11733803 257.06727749 -0.11068493 C267.42917408 -0.10719152 277.79099149 -0.10943287 288.1528759 -0.12693596 C296.97327275 -0.1416505 305.79353467 -0.14230309 314.61392885 -0.12486505 C319.11330098 -0.11634671 323.61243199 -0.11422587 328.11179161 -0.1295166 C332.23299319 -0.14334873 336.35374674 -0.13861969 340.47492231 -0.11927737 C341.96339204 -0.11551252 343.45189753 -0.11845335 344.94033545 -0.12888902 C356.56874976 -0.20460129 364.54284637 1.45583065 373.14894104 9.4618988 C380.47205268 17.34463687 382.24073033 25.37294646 382.17851257 35.86592102 C382.18107585 37.44782028 382.18107585 37.44782028 382.18369091 39.0616771 C382.18698462 42.59473032 382.17598387 46.12759355 382.16505432 49.66062927 C382.16449018 52.19350174 382.16480682 54.72637454 382.16593933 57.25924683 C382.16639474 62.71199332 382.16072263 68.16467865 382.14946365 73.61741257 C382.1331958 81.5010954 382.12799933 89.3847551 382.12548767 97.2684529 C382.12111259 110.05983602 382.10780854 122.85119361 382.08888245 135.64256287 C382.07051882 148.06671521 382.05636468 160.49086062 382.04786682 172.9150238 C382.04734137 173.68110533 382.04681593 174.44718685 382.04627456 175.23648296 C382.04366444 179.07976543 382.04113704 182.92304794 382.03865075 186.76633048 C382.01792406 218.64013299 381.98215241 250.51390115 381.93800354 282.38768005 C372.69800354 282.38768005 363.45800354 282.38768005 353.93800354 282.38768005 C353.92769608 279.23282547 353.91738861 276.07797089 353.9067688 272.82751465 C353.81188847 243.92792845 353.71208717 215.02836361 353.6068866 186.12881327 C353.59311625 182.34474101 353.57938927 178.56066859 353.56568909 174.77659607 C353.56296078 174.02322346 353.56023248 173.26985085 353.5574215 172.49364876 C353.51329047 160.27906439 353.47267618 148.06447071 353.43335093 135.84987003 C353.39295184 123.32592347 353.34879819 110.80199426 353.30112499 98.27807325 C353.27180369 90.54390437 353.24544628 82.80973685 353.22282457 75.07554542 C353.20519465 69.15499641 353.18235282 63.23447489 353.15751266 57.31395149 C353.14812084 54.87780356 353.1404533 52.44164832 353.13458443 50.00548935 C353.12635931 46.69523238 353.11209305 43.38505689 353.09622192 40.0748291 C353.09475476 38.60841991 353.09475476 38.60841991 353.09325796 37.11238629 C353.08778352 36.23257955 353.08230908 35.35277282 353.07666874 34.44630527 C353.0740107 33.68116881 353.07135265 32.91603234 353.06861407 32.12770993 C353.12600221 30.35828039 353.12600221 30.35828039 351.93800354 29.38768005 C350.01974492 29.28999633 348.09782899 29.26396692 346.17708492 29.26463223 C344.28783965 29.26164565 344.28783965 29.26164565 342.3604278 29.25859874 C340.94454934 29.26145234 339.52867106 29.26439795 338.11279297 29.26742554 C336.6228768 29.26698997 335.1329607 29.26611532 333.64304501 29.26483637 C329.52932652 29.26258863 325.41563382 29.26661649 321.30191863 29.27161443 C316.87312863 29.27591476 312.4443402 29.27447281 308.01554871 29.27371216 C300.33587738 29.27318666 292.65621453 29.27633618 284.97654533 29.28195 C273.8728994 29.29006147 262.76925758 29.29267985 251.66560901 29.29393799 C233.6526451 29.29612906 215.6396857 29.30279065 197.62672424 29.3122406 C180.12412031 29.32141328 162.6215176 29.32849482 145.11891174 29.33274841 C144.04086906 29.33301114 142.96282638 29.33327386 141.85211574 29.33354454 C136.44413666 29.33484954 131.03615757 29.33611326 125.62817848 29.33735645 C80.73145037 29.34773079 35.83472719 29.36535062 -9.06199646 29.38768005 C-10.5161346 32.29595632 -10.18880326 34.82785113 -10.19063091 38.07816315 C-10.19238395 38.77716997 -10.19413699 39.4761768 -10.19594315 40.19636565 C-10.20063224 42.5621991 -10.19813023 44.92797187 -10.19570923 47.29380798 C-10.19757574 48.99765177 -10.19987579 50.70149514 -10.20257455 52.40533781 C-10.20871871 57.10581273 -10.2085559 61.80626994 -10.20738018 66.50674796 C-10.20717683 71.56883252 -10.21268855 76.63091128 -10.21743774 81.69299316 C-10.2257589 91.6168979 -10.22849323 101.5407967 -10.22905012 111.46470463 C-10.22952454 119.52671272 -10.23157555 127.58871885 -10.23475075 135.65072632 C-10.2435609 158.48317892 -10.2481695 181.31562681 -10.24742027 204.14808112 C-10.24736034 205.9960405 -10.24736034 205.9960405 -10.24729919 207.8813324 C-10.24725831 209.11480067 -10.24721743 210.34826895 -10.24717531 211.61911505 C-10.24676862 231.62184445 -10.25634308 251.62455503 -10.27043756 271.62727898 C-10.28477907 292.14159842 -10.29170899 312.65590867 -10.29084378 333.17023325 C-10.29051107 344.69730835 -10.29329072 356.22436373 -10.30402184 367.75143433 C-10.31309757 377.56357414 -10.31532628 387.37568529 -10.30851241 397.18782747 C-10.30523247 402.19861853 -10.30524323 407.20935453 -10.31386566 412.22014046 C-10.32166691 416.80061275 -10.32036534 421.38098572 -10.31158153 425.9614554 C-10.31003236 427.62494688 -10.31191525 429.28844554 -10.31744161 430.95192856 C-10.32442116 433.2004744 -10.31927242 435.44866394 -10.31088543 437.69719696 C-10.3111028 438.94994935 -10.31132017 440.20270173 -10.31154412 441.49341631 C-10.36385929 444.51498427 -10.36385929 444.51498427 -8.06199646 446.38768005 C-5.02914173 446.59364728 -2.08651849 446.67272789 0.94816589 446.66615295 C2.36568006 446.67484156 2.36568006 446.67484156 3.81183088 446.68370569 C6.99796535 446.70079459 10.18395575 446.70358981 13.37013245 446.70652771 C15.64626423 446.71581976 17.92239259 446.72598733 20.19851685 446.73696899 C26.39447451 446.76436465 32.59040932 446.77944665 38.78641176 446.79239702 C45.25537532 446.80798586 51.72429191 446.83478951 58.19322205 446.86042786 C69.05637873 446.9019606 79.91953419 446.93653351 90.7827301 446.96580505 C101.97317853 446.99597739 113.16360128 447.03032157 124.35401917 447.07029724 C125.38822496 447.07398956 125.38822496 447.07398956 126.44332381 447.07775648 C129.90210325 447.09013082 133.36088238 447.10258741 136.81966138 447.11508489 C165.52573919 447.21870104 194.23185058 447.30774056 222.93800354 447.38768005 C224.25595751 451.11494167 225.56640227 454.84480088 226.87550354 458.57518005 C227.24868713 459.63027771 227.62187073 460.68537537 228.00636292 461.77244568 C228.54293518 463.30481873 228.54293518 463.30481873 229.09034729 464.8681488 C229.42026672 465.80553894 229.75018616 466.74292908 230.09010315 467.70872498 C230.89698393 470.25807794 231.4686853 472.75741207 231.93800354 475.38768005 C201.26183575 475.43332848 170.58567575 475.4687114 139.9094821 475.48981071 C136.28593255 475.49231206 132.66238307 475.49490071 129.03883362 475.49754333 C128.31746564 475.49806796 127.59609766 475.49859258 126.85287004 475.4991331 C115.18039286 475.5078301 103.50793544 475.52359619 91.83546997 475.54198565 C79.85390626 475.56070431 67.87235288 475.57180094 55.89077514 475.57585704 C49.16282724 475.57835239 42.43492047 475.58434235 35.70698738 475.59914017 C29.3730156 475.61272586 23.03910696 475.61690066 16.70512199 475.61389542 C14.38197868 475.61444513 12.05883322 475.61841664 9.73570251 475.626091 C6.55957451 475.63606758 3.38368375 475.63363891 0.20755005 475.62818909 C-0.70784387 475.63401477 -1.62323778 475.63984045 -2.5663709 475.64584267 C-13.68410278 475.59441762 -21.91613061 473.25960228 -30.07762146 465.4618988 C-37.07201289 457.89443749 -39.18336756 450.47558884 -39.19342422 440.24107838 C-39.19547686 439.52918817 -39.19752949 438.81729797 -39.19964433 438.08383533 C-39.2053105 435.69216435 -39.20385755 433.30055102 -39.20243835 430.90887451 C-39.20502221 429.17926934 -39.20803543 427.44966476 -39.21144176 425.720061 C-39.21951261 420.9619999 -39.22130138 416.20395387 -39.22203922 411.44588673 C-39.22388962 406.31621529 -39.23143689 401.18655168 -39.23817444 396.05688477 C-39.25175882 384.83786001 -39.25778262 373.61883883 -39.2621851 362.39980721 C-39.2649473 355.39528277 -39.26918461 348.3907597 -39.27368927 341.38623619 C-39.28588199 321.99467334 -39.29618135 302.60311159 -39.29956436 283.21154499 C-39.29989371 281.34973674 -39.29989371 281.34973674 -39.30022971 279.4503162 C-39.30055713 277.58404161 -39.30055713 277.58404161 -39.30089116 275.6800645 C-39.30133463 273.15885627 -39.30178119 270.63764805 -39.30223083 268.11643982 C-39.30245226 266.86583223 -39.30267369 265.61522463 -39.30290183 264.32671984 C-39.30685007 244.06121632 -39.32430486 223.79574875 -39.34759036 203.53025911 C-39.37130147 182.7265228 -39.3837661 161.92280454 -39.38493228 141.1190545 C-39.38584917 129.43749705 -39.39160494 117.75598645 -39.40975189 106.07444191 C-39.4251496 96.12754923 -39.43027526 86.18071786 -39.42201379 76.23381553 C-39.41810616 71.15920298 -39.41904248 66.08471394 -39.43307114 61.01011658 C-39.44580303 56.36207501 -39.44461872 51.71424986 -39.43248042 47.06620862 C-39.43052221 45.38718517 -39.43360763 43.70814641 -39.44232479 42.02914444 C-39.50928177 28.25770354 -38.29334142 17.9088611 -28.39793396 7.6650238 C-19.97233541 -0.16424243 -10.98825797 -0.04848399 0 0 Z " fill="#000000" transform="translate(39.06199645996094,-0.3876800537109375)"/>
<path d="M0 0 C1.12599609 -0.01611328 2.25199219 -0.03222656 3.41210938 -0.04882812 C14.77520542 -0.0553624 25.06591952 1.26962042 33.5625 9.3125 C39.2087948 14.9587948 41.3474156 22.61608254 42.5625 30.3125 C43.4134106 30.31065641 44.26432119 30.30881283 45.14101696 30.30691338 C65.83886036 30.26275814 86.53669565 30.22965501 107.23457623 30.20887566 C117.24388507 30.19856001 127.25316249 30.18449415 137.26245117 30.16162109 C145.98582998 30.14169607 154.70918603 30.12878566 163.43258697 30.12432301 C168.05219547 30.12171413 172.67173887 30.11557609 177.29132652 30.10103989 C181.63901594 30.08747002 185.98661339 30.08327616 190.33432198 30.08628464 C191.93027114 30.08573421 193.52622337 30.08175321 195.12215424 30.07408905 C197.30129101 30.06413706 199.48008064 30.06653194 201.65922546 30.07199097 C203.48852364 30.06922559 203.48852364 30.06922559 205.35477734 30.06640434 C209.41883466 30.37819777 212.30001515 31.26042929 215.4375 33.875 C219.03177321 41.66259196 213.47898685 54.58852029 211.484375 62.67578125 C211.28191414 63.50100973 211.07945328 64.32623821 210.87085724 65.17647362 C209.80171783 69.53341238 208.72579345 73.88860751 207.64404297 78.24243164 C206.52998643 82.73181727 205.43904545 87.22649112 204.35322189 91.72277546 C203.51134116 95.19091333 202.65269125 98.6547398 201.78940582 102.11760521 C201.3796864 103.77343665 200.97625306 105.43083696 200.57930756 107.08977699 C200.02335498 109.40621372 199.44390566 111.71554203 198.85839844 114.0246582 C198.70028183 114.70679382 198.54216522 115.38892944 198.3792572 116.09173584 C197.58845487 119.11515091 196.58999479 121.27742044 194.66017151 123.73960876 C189.79104467 126.21198419 185.08699103 125.83497979 179.70385742 125.76660156 C177.90322845 125.76747772 177.90322845 125.76747772 176.06622314 125.76837158 C172.78329195 125.76606572 169.5010467 125.74603469 166.21825194 125.71807575 C162.78431043 125.6930353 159.35035479 125.69071804 155.91633606 125.68597412 C149.41754307 125.67355203 142.91901989 125.64074108 136.4203456 125.60057616 C129.02016679 125.55583436 121.61997494 125.5338654 114.2196945 125.51379442 C99.00047351 125.47200754 83.78152158 125.40167073 68.5625 125.3125 C69.27226239 127.40252372 70.00617111 129.48435651 70.75 131.5625 C71.15605469 132.72265625 71.56210937 133.8828125 71.98046875 135.078125 C73.74523943 138.68610061 75.17114266 140.20442196 78.5625 142.3125 C88.58027521 145.54184826 100.17533485 144.54871819 110.56297302 144.46282959 C113.7158782 144.43701173 116.86861273 144.42420016 120.02160645 144.41455078 C126.70198192 144.39185951 133.38221392 144.35331103 140.0625 144.3125 C147.83660353 144.26522411 155.61062848 144.22452757 163.38484192 144.20062256 C166.48758705 144.1876821 169.59008519 144.16268197 172.69274902 144.13720703 C174.59138781 144.12994343 176.49002884 144.12323978 178.38867188 144.1171875 C179.24794281 144.10685486 180.10721375 144.09652222 180.99252319 144.08587646 C185.24984568 144.08512224 188.76695465 144.13819699 192.5625 146.3125 C195.04288907 150.0330836 195.02587203 151.91046571 194.5625 156.3125 C193.18862915 158.50379944 193.18862915 158.50379944 190.5625 160.3125 C187.10194551 160.91275207 183.67398277 160.84814211 180.16943359 160.81420898 C179.11201965 160.81961197 178.05460571 160.82501495 176.96514893 160.83058167 C173.46346173 160.84310502 169.96259133 160.82654646 166.4609375 160.80859375 C164.02438311 160.80874872 161.58782846 160.81023741 159.15127563 160.81300354 C154.03840263 160.81438939 148.92580949 160.80180338 143.81298828 160.77905273 C137.2762549 160.75075826 130.7399898 160.75337861 124.20322227 160.76614285 C119.16728764 160.77311967 114.13146006 160.76528631 109.09553909 160.75288582 C106.68672726 160.74838441 104.27790387 160.748023 101.86909103 160.75195122 C98.48980193 160.75488066 95.11114285 160.73826989 91.73193359 160.71655273 C90.25241714 160.72330521 90.25241714 160.72330521 88.74301147 160.73019409 C79.01947804 160.62702788 70.37391995 158.63092032 63.04296875 151.921875 C54.13377938 142.62925216 51.72196327 128.36372799 48.54269409 116.31561279 C47.73127607 113.2415646 46.90887808 110.17062101 46.08422852 107.10009766 C43.3300233 96.82336865 40.6171345 86.53588615 37.92485332 76.24278641 C36.48697761 70.74591615 35.042423 65.25082413 33.59434223 59.75663376 C32.53601242 55.73771882 31.48872017 51.71612953 30.44954872 47.69222069 C29.64055219 44.57114348 28.81704046 41.45388901 27.99609375 38.3359375 C27.70800842 37.20674896 27.4199231 36.07756042 27.12310791 34.91415405 C24.59724573 25.26386069 24.59724573 25.26386069 17.66796875 18.46875 C10.96065952 16.02127093 3.19891135 16.83703071 -3.83007812 16.78515625 C-5.00376953 16.76324219 -6.17746094 16.74132812 -7.38671875 16.71875 C-8.45237061 16.71166016 -9.51802246 16.70457031 -10.6159668 16.69726562 C-13.80124849 16.2628965 -15.16289708 15.55174297 -17.4375 13.3125 C-18.61157634 9.71199922 -18.76509676 8.03321287 -17.1875 4.5625 C-12.63002109 -1.29711574 -6.79539469 -0.01886562 0 0 Z " fill="#000000" transform="translate(265.4375,306.6875)"/>
<path d="M0 0 C0.87235894 -0.00297112 1.74471789 -0.00594224 2.64351195 -0.0090034 C5.57214 -0.01768803 8.50072716 -0.01919845 11.42936707 -0.02069092 C13.52694791 -0.02531923 15.62452791 -0.0303439 17.72210693 -0.03573608 C23.42463723 -0.04886013 29.12715576 -0.05530496 34.8296988 -0.05974674 C38.39170315 -0.06267723 41.95370428 -0.06678197 45.51570702 -0.07125092 C56.65841749 -0.08492534 67.80112061 -0.09459249 78.94383889 -0.09845281 C91.81034044 -0.10293472 104.67673582 -0.12048912 117.54320508 -0.1494534 C127.48641485 -0.17106082 137.42959471 -0.18115657 147.37282771 -0.18249393 C153.31260711 -0.18354255 159.2522867 -0.18946272 165.1920414 -0.20731354 C170.77919044 -0.22377807 176.36616445 -0.22595752 181.95332909 -0.21717453 C184.00318241 -0.21640331 186.05304508 -0.22075798 188.10287476 -0.23063278 C190.90302043 -0.24333038 193.70254416 -0.23748728 196.50268555 -0.22705078 C197.31223011 -0.23510719 198.12177468 -0.24316359 198.9558509 -0.25146413 C205.1370195 -0.19764987 209.67319729 1.12009688 214.75431824 4.82794189 C217.96841159 9.23244019 218.6516973 13.40144394 218.00431824 18.76544189 C216.0279107 23.03448217 213.48281559 25.72718095 209.44181824 28.14044189 C204.94694856 29.35790645 200.45335421 29.28303028 195.83258057 29.27415466 C194.96682874 29.27642022 194.10107691 29.27868578 193.20909017 29.28101999 C190.30886942 29.2873488 187.40869552 29.28653134 184.50846863 29.28570557 C182.42882222 29.28869772 180.34917637 29.29210038 178.26953125 29.29588318 C172.62084132 29.3047208 166.97216653 29.30706117 161.32347035 29.30769897 C156.6091157 29.30864835 151.89476458 29.31232691 147.18041128 29.31587106 C136.05961868 29.32401441 124.93883418 29.32645537 113.81803894 29.32574463 C102.34197818 29.32514358 90.86596439 29.3357011 79.38991553 29.35148829 C69.53926944 29.36455714 59.68863872 29.36992881 49.83798403 29.36928922 C43.95360853 29.36903408 38.06927478 29.37189439 32.18490791 29.38246727 C26.65194678 29.39213741 21.11906742 29.39223485 15.58610344 29.38495064 C13.55518347 29.38390351 11.52425844 29.38627526 9.49334717 29.3923111 C6.7214814 29.40001569 3.94989911 29.39539633 1.17803955 29.38768005 C-0.02795054 29.3953954 -0.02795054 29.3953954 -1.25830406 29.40326661 C-8.20904183 29.36049503 -13.36652533 28.04367297 -18.55818176 23.14044189 C-21.10032825 18.90945683 -21.24437422 14.96052553 -20.55818176 10.14044189 C-18.52368511 6.21676977 -16.37468248 3.4064892 -12.55818176 1.14044189 C-8.4038168 -0.10593625 -4.30124191 -0.00456602 0 0 Z " fill="#000000" transform="translate(112.55818176269531,222.85955810546875)"/>
<path d="M0 0 C0.87896606 -0.00367669 1.75793212 -0.00735338 2.66353351 -0.01114148 C5.62056892 -0.02218959 8.57756921 -0.02602408 11.53462219 -0.02983093 C13.65013745 -0.03609474 15.76565161 -0.04274147 17.88116455 -0.04974365 C23.63753499 -0.06716119 29.39389712 -0.07770753 35.15028739 -0.08594918 C38.74596345 -0.09109787 42.34163693 -0.09717367 45.93731117 -0.10346031 C57.18521052 -0.12251473 68.43310329 -0.13674519 79.68101567 -0.14507228 C92.66866896 -0.15484581 105.65615187 -0.18116743 118.64374512 -0.22157317 C128.67951786 -0.25172497 138.71524172 -0.26654028 148.75105888 -0.26985329 C154.74625281 -0.27220488 160.74126476 -0.28117958 166.73641014 -0.30631447 C172.37775591 -0.32958358 178.01879974 -0.33383293 183.66018105 -0.32355309 C185.72896961 -0.32305733 187.79777298 -0.32938932 189.86651611 -0.34310913 C192.69498209 -0.36081542 195.52236303 -0.35372792 198.35083008 -0.34057617 C199.57347369 -0.35703004 199.57347369 -0.35703004 200.82081717 -0.37381631 C206.45127956 -0.31078315 210.7914431 0.98019962 215.49287415 4.14717102 C218.29233784 7.57877168 219.22869413 10.74417074 219.49287415 15.14717102 C218.69348359 20.74290491 216.78270485 23.42716556 212.56302655 26.88456416 C208.93157963 29.09942032 205.46073398 28.96904317 201.30145264 28.89561462 C200.39723999 28.90356344 199.49302734 28.91151225 198.5614143 28.91970193 C195.54239664 28.93889643 192.52526584 28.91534803 189.50630188 28.89179993 C187.33768516 28.89665762 185.16907292 28.90409808 183.00047302 28.91392517 C177.11820128 28.93272443 171.23659619 28.91390935 165.35437655 28.88726091 C159.19790986 28.86461735 153.04147563 28.87284798 146.88497925 28.87675476 C136.54754248 28.87852013 126.21036816 28.85636984 115.8730011 28.8195343 C103.92079487 28.77718847 91.96897294 28.77018191 80.01670688 28.78265822 C68.51835012 28.79404626 57.02012871 28.78275409 45.52179146 28.76031113 C40.62836772 28.75102126 35.73502677 28.7492705 30.8415966 28.75348282 C25.08029942 28.75724932 19.31939354 28.74103576 13.55818558 28.70936203 C11.44342861 28.70087527 9.32863195 28.69917599 7.21386528 28.70474243 C4.32791776 28.71118649 1.44313932 28.69302479 -1.44268799 28.66856384 C-2.69915952 28.67990181 -2.69915952 28.67990181 -3.98101431 28.69146883 C-9.28693963 28.61186296 -12.27916456 27.63496905 -16.50712585 24.14717102 C-19.66996817 20.45718832 -20.02705213 17.06863248 -19.8625946 12.36201477 C-19.15625557 7.96097927 -16.69924343 5.19478949 -13.44462585 2.33467102 C-9.13903893 -0.30423709 -4.87424546 -0.0010876 0 0 Z " fill="#000000" transform="translate(111.50712585449219,111.85282897949219)"/>
<path d="M0 0 C0.96484314 -0.01007584 1.92968628 -0.02015167 2.92376709 -0.03053284 C6.10961531 -0.05900248 9.29498957 -0.06488889 12.48095703 -0.06811523 C14.69906814 -0.07775683 16.91717733 -0.08784935 19.13528442 -0.09837341 C23.7839195 -0.11633219 28.43238737 -0.12189467 33.08105469 -0.12011719 C39.03206854 -0.11981232 44.98200853 -0.16077282 50.93276787 -0.21243382 C55.5139354 -0.24582177 60.09484401 -0.25187401 64.67612076 -0.25028801 C66.86974922 -0.25382403 69.06338468 -0.26707078 71.25689316 -0.29028511 C74.32827301 -0.31974777 77.39733116 -0.31103235 80.46875 -0.29296875 C81.82182755 -0.31825653 81.82182755 -0.31825653 83.20223999 -0.34405518 C88.92731137 -0.25867927 91.91247651 0.94772533 96.06060982 4.9268961 C98.80814112 8.10819151 99.32199344 11.32084605 99.36376953 15.43579102 C98.60094825 20.24156508 97.15544911 22.79255136 93.36376953 25.87329102 C88.31694165 28.50184721 84.07592975 28.58965925 78.50537109 28.59692383 C77.59934143 28.60188873 76.69331177 28.60685364 75.75982666 28.61196899 C72.75800825 28.62659112 69.75624272 28.63339325 66.75439453 28.63891602 C64.66794839 28.64466809 62.58150226 28.65042582 60.49505615 28.65618896 C56.11698154 28.66669955 51.7389253 28.67254163 47.36083984 28.67602539 C41.7576156 28.68150561 36.15463491 28.70552343 30.55148697 28.73399734 C26.2397186 28.75264569 21.92800859 28.75783053 17.61620331 28.75936127 C15.55098898 28.76238412 13.48577559 28.77040021 11.42060089 28.78354645 C8.52679579 28.80065019 5.63358159 28.79871587 2.73974609 28.79223633 C1.46611206 28.8060585 1.46611206 28.8060585 0.16674805 28.82015991 C-5.18124656 28.78275331 -8.8977851 27.97004476 -13.63623047 25.43579102 C-17.88504907 20.85153936 -18.99610785 17.86938213 -18.91748047 11.75610352 C-18.37478234 7.27884395 -16.01738126 4.54274867 -12.59396362 1.79896545 C-8.37927503 -0.14352072 -4.59020484 -0.00688737 0 0 Z " fill="#000000" transform="translate(110.63623046875,334.564208984375)"/>
<path d="M0 0 C4.20674047 3.14359909 6.79759315 7.20370566 7.79296875 12.33984375 C8.3222378 18.69107235 7.48046015 23.06233312 3.79296875 28.33984375 C-0.5977181 32.97127322 -4.58293494 34.50472659 -10.89453125 34.71484375 C-16.92903512 34.649172 -20.79527399 33.49707655 -25.20703125 29.33984375 C-29.44724622 24.14558042 -29.77978488 19.77648598 -29.5234375 13.14453125 C-28.92323606 7.8242271 -27.14921116 5.24105932 -23.33203125 1.58984375 C-15.93022808 -3.73945453 -8.08318711 -4.53368379 0 0 Z " fill="#000000" transform="translate(441.20703125,477.66015625)"/>
<path d="M0 0 C3.9285121 2.94424436 6.2584475 6.74018625 7.79296875 11.34375 C8.5754963 17.84770852 7.6195584 22.97248195 3.79296875 28.34375 C-0.60485013 32.97122 -4.57837379 34.50848099 -10.89453125 34.71875 C-16.92903512 34.65307825 -20.79527399 33.5009828 -25.20703125 29.34375 C-29.44724622 24.14948667 -29.77978488 19.78039223 -29.5234375 13.1484375 C-28.92323606 7.82813335 -27.14921116 5.24496557 -23.33203125 1.59375 C-15.9254775 -3.7389687 -8.09070992 -4.52175405 0 0 Z " fill="#000000" transform="translate(361.20703125,477.65625)"/>
</svg>
