<svg width="36" height="36" fill="none" xmlns="http://www.w3.org/2000/svg"><path opacity=".5" d="M28 13.8a2 2 0 00-2-2h-6v-4a6 6 0 10-12 0v4H2a2 2 0 00-2 2v16a2 2 0 002 2h8v-14a2 2 0 012-2h16v-2zm-11-2h-6v-4a3 3 0 016 0v4zm12.5 10h-1a.5.5 0 00-.5.5v1.5a4.005 4.005 0 01-4.399 3.98C21.523 27.58 20 25.71 20 23.624V22.3a.5.5 0 00-.5-.5h-1a.5.5 0 00-.5.5v1.291c0 3.05 2.188 5.77 5.21 6.159A6.007 6.007 0 0030 23.8v-1.5a.5.5 0 00-.5-.5z" fill="#12C78C"/><path d="M33.999 17.8h-20a2 2 0 00-2 2v12a2 2 0 002 2h20a2 2 0 002-2v-12a2 2 0 00-2-2zm-4 6a6.007 6.007 0 01-6.79 5.95C20.186 29.361 18 26.64 18 23.59V22.3a.5.5 0 01.5-.5h1a.5.5 0 01.5.5v1.322c0 2.088 1.523 3.957 3.601 4.159A4.005 4.005 0 0028 23.8v-1.5a.5.5 0 01.5-.5h1a.5.5 0 01.5.5v1.5z" fill="#12C78C"/></svg>