<svg width="37" height="36" fill="none" xmlns="http://www.w3.org/2000/svg"><g clip-path="url(#clip0_6249_124536)" fill="#6099FA"><path d="M27.875 18.938a1.875 1.875 0 100 3.75 1.875 1.875 0 000-3.75zm.938-14.063H7.25a3.75 3.75 0 00-3.75 3.75A1.875 1.875 0 005.375 10.5h2.813a.938.938 0 010-1.875h22.5a.937.937 0 00.937-.938 2.812 2.812 0 00-2.813-2.812z"/><path opacity=".4" d="M30.523 10.5H5.375A1.875 1.875 0 013.5 8.625v18.75a3.75 3.75 0 003.75 3.75h23.273c1.641 0 2.977-1.262 2.977-2.813v-15c0-1.55-1.335-2.812-2.977-2.812zm-2.648 12.188a1.875 1.875 0 110-3.751 1.875 1.875 0 010 3.75z"/></g><defs><clipPath id="clip0_6249_124536"><path fill="#fff" transform="translate(.5)" d="M0 0h36v36H0z"/></clipPath></defs></svg>