<svg width="32" height="32" viewBox="0 0 32 32" fill="none" xmlns="http://www.w3.org/2000/svg">
<g clip-path="url(#clip0)">
<path d="M2 15.4167C2 9.09199 2 5.92965 3.96482 3.96482C5.92965 2 9.09199 2 15.4167 2H16.5833C22.908 2 26.0704 2 28.0352 3.96482C30 5.92965 30 9.09199 30 15.4167V16.5833C30 22.908 30 26.0704 28.0352 28.0352C26.0704 30 22.908 30 16.5833 30H15.4167C9.09199 30 5.92965 30 3.96482 28.0352C2 26.0704 2 22.908 2 16.5833L2 15.4167Z" fill="black"/>
<path d="M16 6C10.4798 6 6 10.4798 6 16C6 21.5202 10.4798 26 16 26C21.5202 26 26 21.5202 26 16C26 10.4798 21.5202 6 16 6ZM20.0605 20.7137C19.8911 20.7137 19.7863 20.6613 19.629 20.5685C17.1129 19.0524 14.1855 18.9879 11.2944 19.5806C11.1371 19.621 10.9315 19.6855 10.8145 19.6855C10.4234 19.6855 10.1774 19.375 10.1774 19.0484C10.1774 18.6331 10.4234 18.4355 10.7258 18.371C14.0282 17.6411 17.4032 17.7056 20.2823 19.4274C20.5282 19.5847 20.6734 19.7258 20.6734 20.0927C20.6734 20.4597 20.3871 20.7137 20.0605 20.7137V20.7137ZM21.1452 18.0685C20.9355 18.0685 20.7944 17.9758 20.6492 17.8992C18.129 16.4073 14.371 15.8065 11.0282 16.7137C10.8347 16.7661 10.7298 16.8185 10.5484 16.8185C10.1169 16.8185 9.76613 16.4677 9.76613 16.0363C9.76613 15.6048 9.97581 15.3185 10.3911 15.2016C11.5121 14.8871 12.6573 14.6532 14.3347 14.6532C16.9516 14.6532 19.4798 15.3024 21.4718 16.4879C21.7984 16.6815 21.9274 16.9315 21.9274 17.2823C21.9234 17.7177 21.5847 18.0685 21.1452 18.0685V18.0685ZM22.3952 14.996C22.1855 14.996 22.0565 14.9435 21.875 14.8387C19.004 13.125 13.871 12.7137 10.5484 13.6411C10.4032 13.6815 10.2218 13.746 10.0282 13.746C9.49597 13.746 9.08871 13.3306 9.08871 12.7944C9.08871 12.246 9.42742 11.9355 9.79032 11.8306C11.2097 11.4153 12.7984 11.2177 14.5282 11.2177C17.4718 11.2177 20.5565 11.8306 22.8105 13.1452C23.125 13.3266 23.3306 13.5766 23.3306 14.0565C23.3306 14.6048 22.8871 14.996 22.3952 14.996V14.996Z" fill="#1ED860"/>
</g>
<defs>
<clipPath id="clip0">
<rect width="28" height="28" fill="white" transform="translate(2 2)"/>
</clipPath>
</defs>
</svg>
